<svg width="800" height="600" viewBox="0 0 800 600" xmlns="http://www.w3.org/2000/svg">
  <!-- Background Elements -->
  <circle cx="400" cy="300" r="250" fill="#f0f9ff" opacity="0.5"/>
  <circle cx="400" cy="300" r="200" fill="#e0f2fe" opacity="0.3"/>
  
  <!-- POS Device -->
  <g transform="translate(250, 150)">
    <!-- Device Body -->
    <rect width="300" height="200" rx="10" fill="#ffffff" stroke="#0ea5e9" stroke-width="3"/>
    
    <!-- Screen -->
    <rect x="20" y="20" width="260" height="120" rx="4" fill="#f1f5f9"/>
    
    <!-- Receipt Items -->
    <line x1="40" y1="50" x2="260" y2="50" stroke="#94a3b8" stroke-width="2"/>
    <line x1="40" y1="80" x2="260" y2="80" stroke="#94a3b8" stroke-width="2"/>
    <line x1="40" y1="110" x2="260" y2="110" stroke="#94a3b8" stroke-width="2"/>
    
    <!-- Keypad -->
    <g transform="translate(20, 160)">
      <circle cx="20" cy="20" r="15" fill="#e2e8f0"/>
      <circle cx="60" cy="20" r="15" fill="#e2e8f0"/>
      <circle cx="100" cy="20" r="15" fill="#e2e8f0"/>
    </g>
  </g>
  
  <!-- Benefits Icons -->
  <g transform="translate(150, 400)">
    <!-- Cloud Sync -->
    <circle cx="50" cy="50" r="40" fill="#bae6fd"/>
    <path d="M30 50 C30 40, 40 30, 50 30 C60 30, 70 40, 70 50" fill="none" stroke="#0284c7" stroke-width="3"/>
    <polyline points="45,45 50,50 55,45" fill="none" stroke="#0284c7" stroke-width="3"/>
  </g>
  
  <g transform="translate(350, 400)">
    <!-- Security Shield -->
    <circle cx="50" cy="50" r="40" fill="#bae6fd"/>
    <path d="M35 35 L50 25 L65 35 L65 55 C65 65, 50 75, 50 75 C50 75, 35 65, 35 55 Z" fill="none" stroke="#0284c7" stroke-width="3"/>
    <polyline points="43,50 48,55 58,45" fill="none" stroke="#0284c7" stroke-width="3"/>
  </g>
  
  <g transform="translate(550, 400)">
    <!-- Support/Chat -->
    <circle cx="50" cy="50" r="40" fill="#bae6fd"/>
    <path d="M30 45 C30 35, 40 30, 50 30 C60 30, 70 35, 70 45 C70 55, 60 60, 50 60 L50 70" fill="none" stroke="#0284c7" stroke-width="3"/>
    <circle cx="50" cy="75" r="2" fill="#0284c7"/>
  </g>
  
  <!-- Connecting Lines -->
  <path d="M200 450 L350 450" stroke="#93c5fd" stroke-width="2" stroke-dasharray="5,5"/>
  <path d="M400 450 L550 450" stroke="#93c5fd" stroke-width="2" stroke-dasharray="5,5"/>
  
  <!-- Decorative Elements -->
  <circle cx="150" cy="100" r="10" fill="#93c5fd" opacity="0.5"/>
  <circle cx="650" cy="100" r="10" fill="#93c5fd" opacity="0.5"/>
  <circle cx="150" cy="500" r="10" fill="#93c5fd" opacity="0.5"/>
  <circle cx="650" cy="500" r="10" fill="#93c5fd" opacity="0.5"/>
</svg>