<svg width="800" height="600" viewBox="0 0 800 600" xmlns="http://www.w3.org/2000/svg">
  <!-- Background -->
  <rect width="800" height="600" fill="#f9fafb" />
  
  <!-- Header -->
  <rect x="20" y="20" width="760" height="60" rx="8" fill="#ffffff" stroke="#e5e7eb" stroke-width="1" />
  <text x="40" y="55" font-family="Arial" font-size="20" font-weight="bold" fill="#111827">Branch Management</text>
  <rect x="650" y="30" width="110" height="40" rx="6" fill="#059669" />
  <text x="675" y="55" font-family="Arial" font-size="14" font-weight="bold" fill="#ffffff">Add Branch</text>
  
  <!-- Search and Filter -->
  <rect x="20" y="100" width="300" height="40" rx="6" fill="#ffffff" stroke="#d1d5db" stroke-width="1" />
  <text x="50" y="125" font-family="Arial" font-size="14" fill="#6b7280">Search branches...</text>
  <circle cx="35" cy="120" r="8" fill="none" stroke="#9ca3af" stroke-width="1.5" />
  <line x1="40" y1="125" x2="45" y2="130" stroke="#9ca3af" stroke-width="1.5" />
  
  <rect x="650" y="100" width="130" height="40" rx="6" fill="#ffffff" stroke="#d1d5db" stroke-width="1" />
  <text x="670" y="125" font-family="Arial" font-size="14" fill="#111827">All Status</text>
  
  <!-- Table -->
  <rect x="20" y="160" width="760" height="420" rx="8" fill="#ffffff" stroke="#e5e7eb" stroke-width="1" />
  
  <!-- Table Header -->
  <rect x="20" y="160" width="760" height="50" rx="8 8 0 0" fill="#f9fafb" />
  <line x1="20" y1="210" x2="780" y2="210" stroke="#e5e7eb" stroke-width="1" />
  
  <text x="40" y="190" font-family="Arial" font-size="14" font-weight="bold" fill="#374151">Branch ID</text>
  <text x="150" y="190" font-family="Arial" font-size="14" font-weight="bold" fill="#374151">Name</text>
  <text x="300" y="190" font-family="Arial" font-size="14" font-weight="bold" fill="#374151">Location</text>
  <text x="450" y="190" font-family="Arial" font-size="14" font-weight="bold" fill="#374151">Status</text>
  <text x="550" y="190" font-family="Arial" font-size="14" font-weight="bold" fill="#374151">Manager</text>
  <text x="650" y="190" font-family="Arial" font-size="14" font-weight="bold" fill="#374151">Created On</text>
  
  <!-- Table Rows -->
  <!-- Row 1 -->
  <line x1="20" y1="260" x2="780" y2="260" stroke="#e5e7eb" stroke-width="1" />
  <text x="40" y="240" font-family="Arial" font-size="14" fill="#111827">BR001</text>
  <text x="150" y="240" font-family="Arial" font-size="14" fill="#111827">Main Branch</text>
  <text x="300" y="240" font-family="Arial" font-size="14" fill="#111827">New Delhi</text>
  
  <rect x="450" y="225" width="70" height="25" rx="12" fill="#d1fae5" />
  <text x="465" y="240" font-family="Arial" font-size="12" fill="#065f46">Active</text>
  
  <text x="550" y="240" font-family="Arial" font-size="14" fill="#111827">John Doe</text>
  <text x="650" y="240" font-family="Arial" font-size="14" fill="#111827">2023-01-15</text>
  
  <!-- Action buttons -->
  <circle cx="740" cy="235" r="15" fill="#f3f4f6" />
  <line x1="735" y1="235" x2="745" y2="235" stroke="#6b7280" stroke-width="1.5" />
  <line x1="740" y1="230" x2="740" y2="240" stroke="#6b7280" stroke-width="1.5" />
  
  <!-- Row 2 -->
  <line x1="20" y1="310" x2="780" y2="310" stroke="#e5e7eb" stroke-width="1" />
  <text x="40" y="290" font-family="Arial" font-size="14" fill="#111827">BR002</text>
  <text x="150" y="290" font-family="Arial" font-size="14" fill="#111827">South Branch</text>
  <text x="300" y="290" font-family="Arial" font-size="14" fill="#111827">Bangalore</text>
  
  <rect x="450" y="275" width="70" height="25" rx="12" fill="#d1fae5" />
  <text x="465" y="290" font-family="Arial" font-size="12" fill="#065f46">Active</text>
  
  <text x="550" y="290" font-family="Arial" font-size="14" fill="#111827">Jane Smith</text>
  <text x="650" y="290" font-family="Arial" font-size="14" fill="#111827">2023-02-20</text>
  
  <!-- Action buttons -->
  <circle cx="740" cy="285" r="15" fill="#f3f4f6" />
  <line x1="735" y1="285" x2="745" y2="285" stroke="#6b7280" stroke-width="1.5" />
  <line x1="740" y1="280" x2="740" y2="290" stroke="#6b7280" stroke-width="1.5" />
  
  <!-- Row 3 -->
  <line x1="20" y1="360" x2="780" y2="360" stroke="#e5e7eb" stroke-width="1" />
  <text x="40" y="340" font-family="Arial" font-size="14" fill="#111827">BR003</text>
  <text x="150" y="340" font-family="Arial" font-size="14" fill="#111827">West Branch</text>
  <text x="300" y="340" font-family="Arial" font-size="14" fill="#111827">Mumbai</text>
  
  <rect x="450" y="325" width="70" height="25" rx="12" fill="#e5e7eb" />
  <text x="460" y="340" font-family="Arial" font-size="12" fill="#374151">Inactive</text>
  
  <text x="550" y="340" font-family="Arial" font-size="14" fill="#111827">Raj Kumar</text>
  <text x="650" y="340" font-family="Arial" font-size="14" fill="#111827">2023-03-10</text>
  
  <!-- Action buttons -->
  <circle cx="740" cy="335" r="15" fill="#f3f4f6" />
  <line x1="735" y1="335" x2="745" y2="335" stroke="#6b7280" stroke-width="1.5" />
  <line x1="740" y1="330" x2="740" y2="340" stroke="#6b7280" stroke-width="1.5" />
  
  <!-- Modal Preview (Add/Edit Branch) -->
  <rect x="150" y="100" width="500" height="400" rx="8" fill="#ffffff" stroke="#d1d5db" stroke-width="2" filter="drop-shadow(0px 4px 6px rgba(0, 0, 0, 0.1))" />
  <rect x="150" y="100" width="500" height="60" rx="8 8 0 0" fill="#f9fafb" stroke="#d1d5db" stroke-width="1" />
  <text x="180" y="135" font-family="Arial" font-size="18" font-weight="bold" fill="#111827">Add New Branch</text>
  <text x="630" y="135" font-family="Arial" font-size="20" fill="#6b7280">×</text>
  
  <!-- Form Fields (simplified) -->
  <rect x="180" y="180" width="200" height="40" rx="6" fill="#ffffff" stroke="#d1d5db" stroke-width="1" />
  <text x="180" y="170" font-family="Arial" font-size="12" fill="#374151">Branch Name*</text>
  
  <rect x="420" y="180" width="200" height="40" rx="6" fill="#f3f4f6" stroke="#d1d5db" stroke-width="1" />
  <text x="420" y="170" font-family="Arial" font-size="12" fill="#374151">Branch Code</text>
  <text x="430" y="205" font-family="Arial" font-size="14" fill="#6b7280">BR004</text>
  
  <rect x="180" y="250" width="440" height="80" rx="6" fill="#ffffff" stroke="#d1d5db" stroke-width="1" />
  <text x="180" y="240" font-family="Arial" font-size="12" fill="#374151">Address*</text>
  
  <!-- Form Buttons -->
  <rect x="500" y="430" width="120" height="40" rx="6" fill="#059669" />
  <text x="525" y="455" font-family="Arial" font-size="14" font-weight="bold" fill="#ffffff">Create Branch</text>
  
  <rect x="370" y="430" width="120" height="40" rx="6" fill="#ffffff" stroke="#d1d5db" stroke-width="1" />
  <text x="410" y="455" font-family="Arial" font-size="14" fill="#374151">Cancel</text>
</svg>